# xmcd
#
# Track frame offsets:
#	150
#	21163
#	35327
#	50297
#	64338
#	83812
#	101760
#	116731
#	134597
#	153797
#	171987
#	185684
#	204261
#	218263
#
# Disc length: 3137 seconds
#
# Revision: 1
# Processed by: cddbd v1.5.1PL2 Copyright (c) Steve Scherf et al.
# Submitted via: audiograbber 1.83.01
#
DISCID=bd0c3f0e
DTITLE=Disco Party - Disco Party CD 2
DYEAR=2000
DGENRE=Pop
TTITLE0=Belle Epoque - Miss Broadway
TTITLE1=George Baker Selection - Paloma Blanca
TTITLE2=Black Blood - A.I.E. (Mwana)
TTITLE3=Charles, Tina - I love to love
TTITLE4=Bouzouki Disco Band - Disco Bouzouki
TTITLE5=Robbins, Donette - True love's hard to find
TTITLE6=Christie, David - Saddle up
TTITLE7=Emanuell - Oh Balutujeh
TTITLE8=Jersey, Jack - Sri Lanka my shangria
TTITLE9=Bino - Mama Leone
TTITLE10=Gibson Brothers - Cuba
TTITLE11=Sanderson, Richard - Marathon man
TTITLE12=Winter, David Alexander - Ghetto
TTITLE13=Shorts, The - Je suis tu es
EXTD=
EXTT0=
EXTT1=
EXTT2=
EXTT3=
EXTT4=
EXTT5=
EXTT6=
EXTT7=
EXTT8=
EXTT9=
EXTT10=
EXTT11=
EXTT12=
EXTT13=
PLAYORDER=
